<svg id="visual" viewBox="0 0 960 540" width="960" height="540" xmlns="http://www.w3.org/2000/svg" xmlns:xlink="http://www.w3.org/1999/xlink" version="1.1"><rect x="0" y="0" width="960" height="540" fill="#D8D9DD"></rect><path d="M0 471L40 470.7C80 470.3 160 469.7 240 454.3C320 439 400 409 480 404.8C560 400.7 640 422.3 720 429C800 435.7 880 427.3 920 423.2L960 419L960 541L920 541C880 541 800 541 720 541C640 541 560 541 480 541C400 541 320 541 240 541C160 541 80 541 40 541L0 541Z" fill="#6aa0c9"></path><path d="M0 381L40 392.3C80 403.7 160 426.3 240 433C320 439.7 400 430.3 480 425.3C560 420.3 640 419.7 720 424.7C800 429.7 880 440.3 920 445.7L960 451L960 541L920 541C880 541 800 541 720 541C640 541 560 541 480 541C400 541 320 541 240 541C160 541 80 541 40 541L0 541Z" fill="#8cb3d1"></path><path d="M0 445L40 458C80 471 160 497 240 496.7C320 496.3 400 469.7 480 466.5C560 463.3 640 483.7 720 497.3C800 511 880 518 920 521.5L960 525L960 541L920 541C880 541 800 541 720 541C640 541 560 541 480 541C400 541 320 541 240 541C160 541 80 541 40 541L0 541Z" fill="#aec7d9"></path><path d="M0 479L40 478.2C80 477.3 160 475.7 240 472.8C320 470 400 466 480 475C560 484 640 506 720 513C800 520 880 512 920 508L960 504L960 541L920 541C880 541 800 541 720 541C640 541 560 541 480 541C400 541 320 541 240 541C160 541 80 541 40 541L0 541Z" fill="#cfdae2"></path></svg>